Coordinates
version=1
nRows=29
nColumns=24
inDegrees=yes

Units are S.I. units (second, meters, Newtons, ...)
Angles are in degrees.

endheader
time	pelvis_tilt	pelvis_list	pelvis_rotation	pelvis_tx	pelvis_ty	pelvis_tz	hip_flexion_r	hip_adduction_r	hip_rotation_r	knee_angle_r	ankle_angle_r	subtalar_angle_r	mtp_angle_r	hip_flexion_l	hip_adduction_l	hip_rotation_l	knee_angle_l	ankle_angle_l	subtalar_angle_l	mtp_angle_l	lumbar_extension	lumbar_bending	lumbar_rotation
      4.14000000	     -2.40860709	      3.24077313	    -11.48622573	      0.95555656	      0.70464396	     -0.31761055	     26.55220170	      4.20804412	      9.29343970	    -68.29038232	      1.51363687	    -17.66359683	      0.00000000	      1.54735342	      9.81017309	     14.69759519	     -2.88871140	     -0.29985262	    -31.92221688	      0.00000000	    -13.77258044	     -4.47651058	     -0.07176014
      4.15000000	     -2.78538668	      2.73167845	    -10.65695481	      0.96824795	      0.70531322	     -0.31829903	     28.27513385	      5.01795631	      9.03003204	    -66.39694013	      2.12834151	    -18.67899201	      0.00000000	     -0.11150509	      9.24602432	     15.34018253	     -1.39293629	     -0.51473445	    -31.96245017	      0.00000000	    -13.79565904	     -3.68611008	     -0.99456902
      4.16000000	     -3.07948221	      2.30858856	     -9.81499114	      0.98094014	      0.70563008	     -0.31897845	     29.76904109	      5.63389420	      8.86332596	    -64.09746912	      2.83757822	    -19.24540113	      0.00000000	     -1.70649116	      8.79441988	     15.82916747	     -0.10733192	     -0.62959791	    -31.96077770	      0.00000000	    -13.91076073	     -3.03520944	     -1.93925186
      4.17000000	     -3.32486393	      1.98971667	     -8.93764843	      0.99367428	      0.70559178	     -0.31965377	     31.04398741	      6.04487237	      8.80584125	    -61.37657357	      3.60056099	    -19.39646649	      0.00000000	     -3.20691881	      8.45686332	     16.28950160	      0.95061430	     -0.60675955	    -31.82894980	      0.00000000	    -14.03988751	     -2.52473967	     -2.86924878
      4.18000000	     -3.56262572	      1.76029778	     -8.04042537	      1.00653523	      0.70512676	     -0.32038351	     32.12221022	      6.25152180	      8.80658578	    -58.22767309	      4.45942473	    -19.20369421	      0.00000000	     -4.59675568	      8.21731003	     16.76032919	      1.80293622	     -0.40903999	    -31.64568265	      0.00000000	    -14.11993749	     -2.10190378	     -3.71694582
      4.19000000	     -3.64763329	      1.59601102	     -7.03216562	      1.01941183	      0.70454987	     -0.32117301	     32.79724817	      6.24860234	      8.87100809	    -54.59461332	      5.34053905	    -18.72200578	      0.00000000	     -6.00550026	      8.04422365	     17.41500021	      2.38868225	     -0.15309224	    -31.47834067	      0.00000000	    -14.38030989	     -1.79699621	     -4.78650375
      4.20000000	     -3.77691330	      1.48060979	     -6.02154447	      1.03243900	      0.70361453	     -0.32197196	     33.26413576	      6.10428316	      9.00603584	    -50.46896207	      6.28360937	    -17.99034249	      0.00000000	     -7.29027223	      7.88599090	     18.16861601	      2.81385157	      0.19196925	    -31.28599484	      0.00000000	    -14.51991857	     -1.53792441	     -5.69295866
      4.21000000	     -3.87619869	      1.39186594	     -5.00135336	      1.04554445	      0.70247012	     -0.32281575	     33.41455835	      5.82854126	      9.20725717	    -45.81102978	      7.23755681	    -17.13518609	      0.00000000	     -8.50929957	      7.73659215	     19.02341463	      3.03974694	      0.60987582	    -31.12496169	      0.00000000	    -14.66813604	     -1.30191453	     -6.60208042
      4.22000000	     -3.97138387	      1.32373650	     -3.99119691	      1.05876235	      0.70111619	     -0.32367973	     33.25848814	      5.44319878	      9.48845213	    -40.61592102	      8.12288529	    -16.27091360	      0.00000000	     -9.66782216	      7.57932834	     19.95640189	      3.12349817	      1.07149481	    -30.96110544	      0.00000000	    -14.78387507	     -1.08560374	     -7.45065602
      4.23000000	     -4.03776021	      1.27199402	     -2.99591979	      1.07209872	      0.69959743	     -0.32457000	     32.75995017	      4.95755409	      9.86841607	    -34.89829445	      8.83520797	    -15.54013660	      0.00000000	    -10.80494442	      7.41442397	     20.93248556	      3.08908831	      1.56897381	    -30.77996180	      0.00000000	    -14.90785373	     -0.88624295	     -8.23616150
      4.24000000	     -4.05853388	      1.26741870	     -2.05866995	      1.08563168	      0.69789814	     -0.32545062	     31.92623852	      4.36448512	     10.36010758	    -28.73594565	      9.27088383	    -15.12088647	      0.00000000	    -11.96679815	      7.28242596	     21.88270832	      2.97606984	      2.08569638	    -30.54416675	      0.00000000	    -15.04302049	     -0.74958997	     -8.95374079
      4.25000000	     -3.97864100	      1.31099246	     -1.22259201	      1.09946326	      0.69605198	     -0.32629933	     30.74970615	      3.68874355	     10.96140109	    -22.27714242	      9.30505756	    -15.12004427	      0.00000000	    -13.25240358	      7.19036462	     22.74381760	      2.83740113	      2.61704021	    -30.20839138	      0.00000000	    -15.23910702	     -0.66545093	     -9.52998365
      4.26000000	     -4.07167071	      1.60453003	     -0.33935191	      1.11351933	      0.69369355	     -0.32726362	     29.72284801	      2.67959129	     11.23776339	    -15.91739631	      9.17028423	    -15.24712177	      0.00000000	    -14.32895076	      7.32137054	     23.72964727	      2.60542319	      3.12168272	    -29.73398452	      0.00000000	    -15.15001211	     -0.88076238	    -10.20844718
      4.27000000	     -3.87284739	      1.92316395	      0.37947755	      1.12790745	      0.69142852	     -0.32814949	     28.35232775	      1.70797029	     11.20994892	     -9.83246118	      8.76687476	    -15.39868405	      0.00000000	    -15.75402292	      7.48564249	     24.52580702	      2.35491324	      3.66042702	    -29.08249849	      0.00000000	    -15.41147632	     -1.10717617	    -10.71450779
      4.28000000	     -3.77853820	      2.47810657	      0.99477177	      1.14242749	      0.68883268	     -0.32885769	     27.31241024	      0.66824715	     10.41254569	     -4.58995372	      8.70513174	    -14.91777005	      0.00000000	    -17.02413141	      7.90199718	     25.27313243	      1.96878946	      4.05062103	    -28.42608563	      0.00000000	    -15.53539967	     -1.66019968	    -11.18243129
      4.29000000	     -3.42124444	      2.79997808	      1.43839652	      1.15752324	      0.68655028	     -0.32920553	     26.11305748	      0.13050211	      8.99139999	     -0.25712602	      8.96012751	    -13.73012974	      0.00000000	    -18.69345038	      8.00575468	     25.76590721	      1.73531098	      4.48232957	    -27.39035698	      0.00000000	    -15.91596066	     -1.95003192	    -11.54760889
      4.30000000	     -3.09120095	      3.05499550	      1.74441007	      1.17282717	      0.68435122	     -0.32920229	     25.20765706	     -0.05441301	      7.39576729	      2.88939049	      9.52429386	    -12.28940266	      0.00000000	    -20.27008134	      8.04264398	     26.07941380	      1.37573233	      4.80513566	    -26.21135328	      0.00000000	    -16.25994728	     -2.20966198	    -11.79787332
      4.31000000	     -2.78359917	      3.18058881	      1.90268735	      1.18836517	      0.68230682	     -0.32899154	     24.57086613	      0.08968716	      6.15452455	      4.84522130	     10.15905549	    -11.20835644	      0.00000000	    -21.74100517	      7.98766987	     26.12909588	      0.87828802	      5.03559640	    -24.84623060	      0.00000000	    -16.56431327	     -2.30538221	    -11.91218144
      4.32000000	     -2.52310680	      3.17717036	      1.95592290	      1.20410553	      0.68048907	     -0.32864217	     24.22119938	      0.47508616	      5.44036202	      5.62519625	     10.63029667	    -10.85825080	      0.00000000	    -23.04038963	      7.84937740	     25.92293869	      0.19298278	      5.12398780	    -23.20146865	      0.00000000	    -16.81122113	     -2.24416222	    -12.01824869
      4.33000000	     -2.31295915	      3.01198738	      1.96497262	      1.22007333	      0.67892748	     -0.32835232	     24.15563471	      1.05938275	      5.16398886	      5.26258162	     10.94053487	    -11.17073961	      0.00000000	    -24.09197602	      7.62621108	     25.38818961	     -0.81027097	      5.21123487	    -21.14132840	      0.00000000	    -16.98106663	     -1.93034727	    -12.09126802
      4.34000000	     -2.19528811	      2.77069099	      1.83228518	      1.23622176	      0.67756638	     -0.32805414	     24.43726061	      1.77060636	      5.40878251	      3.81311715	     11.04149445	    -11.92052048	      0.00000000	    -24.76629734	      7.48791494	     24.20343477	     -2.26206255	      5.29573328	    -18.46478630	      0.00000000	    -17.02346960	     -1.48902803	    -12.02552856
      4.35000000	     -2.13129700	      2.44362474	      1.70685480	      1.25245498	      0.67655593	     -0.32787117	     24.98299407	      2.57145816	      5.82088106	      1.43349430	     10.80232254	    -12.84715424	      0.00000000	    -25.01209770	      7.35255756	     22.49712277	     -4.28185753	      5.35270154	    -15.13305256	      0.00000000	    -17.02789420	     -0.88688901	    -12.00486869
      4.36000000	     -2.10883968	      2.11292001	      1.63438496	      1.26867041	      0.67591294	     -0.32779116	     25.76917084	      3.37728765	      6.10737421	     -1.72186513	     10.36348825	    -13.60234854	      0.00000000	    -24.69558529	      7.26854260	     19.98560706	     -7.06591745	      5.39863907	    -10.91457157	      0.00000000	    -17.01682312	     -0.24503271	    -12.02796308
      4.37000000	     -2.18730289	      1.73805219	      1.63178906	      1.28478736	      0.67552578	     -0.32779284	     26.83305992	      4.20104074	      6.01471927	     -5.47639944	      9.80965799	    -13.81821832	      0.00000000	    -23.67192818	      7.10333182	     16.69418122	    -10.67600322	      5.24822334	     -6.10113444	      0.00000000	    -16.93155759	      0.47654401	    -12.11983722
      4.38000000	     -2.12754640	      1.33864455	      1.50417511	      1.30062379	      0.67547287	     -0.32769437	     27.84636007	      5.06557346	      5.84592975	     -9.56623798	      9.25260311	    -13.47211636	      0.00000000	    -22.27853538	      6.84033016	     12.96940399	    -14.90015307	      4.34560170	     -1.65390060	      0.00000000	    -17.12729063	      1.20958742	    -11.99229801
      4.39000000	     -2.47633866	      0.87142048	      1.71250663	      1.31637883	      0.67528326	     -0.32790565	     29.19958737	      5.77547318	      5.08436407	    -13.56105695	      8.45473584	    -13.07837195	      0.00000000	    -19.92955465	      6.23275006	      9.69507563	    -19.74472141	      2.67441571	      2.16288372	      0.00000000	    -16.78958993	      2.03546274	    -11.99088995
      4.40000000	     -2.87693115	      0.42907861	      1.87626388	      1.33188412	      0.67513369	     -0.32814405	     30.40917484	      6.40008059	      4.63993419	    -17.23748125	      7.83415892	    -12.65119930	      0.00000000	    -17.16146105	      5.55777669	      6.85713623	    -24.85850986	     -0.12432754	      4.50323211	      0.00000000	    -16.42034221	      2.79937281	    -11.98397505
      4.41000000	     -2.76360579	     -0.29414125	      2.05711186	      1.34727876	      0.67572458	     -0.32836945	     30.67445606	      7.25180262	      4.26371504	    -20.21073942	      7.45258702	    -12.32239713	      0.00000000	    -14.70921360	      4.43355908	      4.40042589	    -30.00407018	     -3.50502346	      5.86918569	      0.00000000	    -16.72622682	      3.87891229	    -11.78060484
      4.42000000	     -3.29268607	     -0.92799515	      2.37407489	      1.36211355	      0.67574131	     -0.32864392	     31.39721496	      7.88170176	      3.76223050	    -22.68701344	      7.25787939	    -12.15257843	      0.00000000	    -11.17744469	      3.35355962	      2.65135257	    -35.37618403	     -7.18768863	      6.17374194	      0.00000000	    -16.27161345	      4.75687108	    -11.63923550
